HIERARCHY
ROOT Hips
{
	OFFSET 0.000000 71.427986 0.000000
	CHANNELS 6 Xposition Yposition Zposition Xrotation Yrotation Zrotation
	JOINT Pelvis
	{
		OFFSET 0.000000 0.000000 0.000000
		CHANNELS 3 Xrotation Yrotation Zrotation
		JOINT LeftUpLeg
		{
			OFFSET 6.797100 -2.508499 -1.318700
			CHANNELS 3 Xrotation Yrotation Zrotation
			JOINT LeftLeg
			{
				OFFSET 0.069008 -29.241863 0.690200
				CHANNELS 3 Xrotation Yrotation Zrotation
				JOINT LeftFoot
				{
					OFFSET -0.069008 -29.568123 -0.266800
					CHANNELS 3 Xrotation Yrotation Zrotation
					JOINT LeftToeBase
					{
						OFFSET 3.145500 -8.631000 16.059900
						CHANNELS 3 Xrotation Yrotation Zrotation
						End Site
						{
							OFFSET 0.000000 18.501587 0.000000
						}
					}
				}
			}
			JOINT Left_ShortSleeve
			{
				OFFSET 0.265923 -10.480953 1.153800
				CHANNELS 3 Xrotation Yrotation Zrotation
				End Site
				{
					OFFSET 1.725763 19.823879 0.000000
				}
			}
		}
		JOINT RightUpLeg
		{
			OFFSET -6.797100 -2.508499 -1.318700
			CHANNELS 3 Xrotation Yrotation Zrotation
			JOINT RightLeg
			{
				OFFSET -0.082453 -29.241932 0.688000
				CHANNELS 3 Xrotation Yrotation Zrotation
				JOINT RightFoot
				{
					OFFSET 0.082453 -29.568058 -0.264600
					CHANNELS 3 Xrotation Yrotation Zrotation
					JOINT RightToeBase
					{
						OFFSET -3.115300 -8.682800 16.113400
						CHANNELS 3 Xrotation Yrotation Zrotation
						End Site
						{
							OFFSET 0.000000 18.567114 0.000000
						}
					}
				}
			}
			JOINT Right_ShortSleeve
			{
				OFFSET -0.265923 -10.480953 1.153800
				CHANNELS 3 Xrotation Yrotation Zrotation
				End Site
				{
					OFFSET -1.725766 19.823910 0.000000
				}
			}
		}
	}
	JOINT Spine
	{
		OFFSET 0.000000 13.368103 0.470500
		CHANNELS 3 Xrotation Yrotation Zrotation
		JOINT Spine1
		{
			OFFSET 0.147000 13.837402 0.538800
			CHANNELS 3 Xrotation Yrotation Zrotation
			JOINT Spine2
			{
				OFFSET 0.168000 16.242897 -1.435500
				CHANNELS 3 Xrotation Yrotation Zrotation
				JOINT Neck
				{
					OFFSET 0.217200 18.631500 -1.679100
					CHANNELS 3 Xrotation Yrotation Zrotation
					JOINT Head
					{
						OFFSET 0.000000 6.599396 1.385900
						CHANNELS 3 Xrotation Yrotation Zrotation
						JOINT Hat
						{
							OFFSET -0.532200 27.220596 -10.096100
							CHANNELS 3 Xrotation Yrotation Zrotation
							End Site
							{
								OFFSET 0.000000 22.029861 0.000000
							}
						}
						JOINT HairD
						{
							OFFSET -10.777400 17.437393 -1.325900
							CHANNELS 3 Xrotation Yrotation Zrotation
							JOINT HairD1
							{
								OFFSET -3.290299 -11.051193 1.062200
								CHANNELS 3 Xrotation Yrotation Zrotation
								End Site
								{
									OFFSET 0.000000 11.579437 0.000000
								}
							}
						}
						JOINT HairB
						{
							OFFSET -10.777400 17.437393 1.467900
							CHANNELS 3 Xrotation Yrotation Zrotation
							JOINT HairB1
							{
								OFFSET -1.561200 -12.956299 3.590200
								CHANNELS 3 Xrotation Yrotation Zrotation
								End Site
								{
									OFFSET 0.000000 13.534866 0.000000
								}
							}
						}
						JOINT HairA
						{
							OFFSET 9.713100 17.437393 1.467900
							CHANNELS 3 Xrotation Yrotation Zrotation
							JOINT HairA1
							{
								OFFSET 1.561200 -12.956299 3.590200
								CHANNELS 3 Xrotation Yrotation Zrotation
								End Site
								{
									OFFSET 0.000000 13.534866 0.000000
								}
							}
						}
						JOINT HairC
						{
							OFFSET 9.713100 17.437393 -1.325900
							CHANNELS 3 Xrotation Yrotation Zrotation
							JOINT HairC1
							{
								OFFSET 3.290300 -11.051193 1.062200
								CHANNELS 3 Xrotation Yrotation Zrotation
								End Site
								{
									OFFSET 0.000000 11.579437 0.000000
								}
							}
						}
					}
				}
				JOINT LeftShoulder
				{
					OFFSET 5.101800 15.108002 -2.763700
					CHANNELS 3 Xrotation Yrotation Zrotation
					JOINT LeftArm
					{
						OFFSET 9.825497 2.506317 -1.597400
						CHANNELS 3 Xrotation Yrotation Zrotation
						JOINT LeftForeArm
						{
							OFFSET 21.966244 0.000000 0.000000
							CHANNELS 3 Xrotation Yrotation Zrotation
							JOINT LeftHand
							{
								OFFSET 33.879036 0.000000 0.000000
								CHANNELS 3 Xrotation Yrotation Zrotation
								JOINT LeftHandThumb1
								{
									OFFSET 6.715286 -2.359680 3.363841
									CHANNELS 3 Xrotation Yrotation Zrotation
									JOINT LeftHandThumb2
									{
										OFFSET 2.507072 -1.447464 1.447461
										CHANNELS 3 Xrotation Yrotation Zrotation
										JOINT LeftHandThumb3
										{
											OFFSET 2.898338 -1.673355 1.673357
											CHANNELS 3 Xrotation Yrotation Zrotation
											End Site
											{
												OFFSET -0.295959 3.727692 -0.131651
											}
										}
									}
								}
								JOINT LeftHandIndex1
								{
									OFFSET 14.190811 -0.254547 3.840278
									CHANNELS 3 Xrotation Yrotation Zrotation
									JOINT LeftHandIndex2
									{
										OFFSET 3.551727 0.000000 -0.000000
										CHANNELS 3 Xrotation Yrotation Zrotation
										JOINT LeftHandIndex3
										{
											OFFSET 2.894196 0.000000 0.000000
											CHANNELS 3 Xrotation Yrotation Zrotation
											End Site
											{
												OFFSET -1.000603 2.690872 0.366626
											}
										}
									}
								}
								JOINT LeftHandMiddle1
								{
									OFFSET 13.776489 0.000000 0.000000
									CHANNELS 3 Xrotation Yrotation Zrotation
									JOINT LeftHandMiddle2
									{
										OFFSET 3.438232 0.000000 0.000000
										CHANNELS 3 Xrotation Yrotation Zrotation
										JOINT LeftHandMiddle3
										{
											OFFSET 3.691551 0.000000 0.000000
											CHANNELS 3 Xrotation Yrotation Zrotation
											End Site
											{
												OFFSET -1.082298 3.499527 0.457670
											}
										}
									}
								}
								JOINT LeftHandRing1
								{
									OFFSET 13.966164 -0.268127 -3.067488
									CHANNELS 3 Xrotation Yrotation Zrotation
									JOINT LeftHandRing2
									{
										OFFSET 3.162567 0.000000 0.000000
										CHANNELS 3 Xrotation Yrotation Zrotation
										JOINT LeftHandRing3
										{
											OFFSET 3.324348 0.000000 0.000000
											CHANNELS 3 Xrotation Yrotation Zrotation
											End Site
											{
												OFFSET -0.861900 3.184998 0.405154
											}
										}
									}
								}
								JOINT LeftHandPinky1
								{
									OFFSET 13.131393 -0.168503 -5.746925
									CHANNELS 3 Xrotation Yrotation Zrotation
									JOINT LeftHandPinky2
									{
										OFFSET 2.849182 0.000000 0.000000
										CHANNELS 3 Xrotation Yrotation Zrotation
										JOINT LeftHandPinky3
										{
											OFFSET 2.805038 0.000000 0.000000
											CHANNELS 3 Xrotation Yrotation Zrotation
											End Site
											{
												OFFSET -0.882500 2.642609 0.325652
											}
										}
									}
								}
							}
							JOINT Left_Sleeve
							{
								OFFSET 6.592125 -0.646545 0.805568
								CHANNELS 3 Xrotation Yrotation Zrotation
								End Site
								{
									OFFSET -0.000179 20.275787 -0.000000
								}
							}
						}
					}
				}
				JOINT RightShoulder
				{
					OFFSET -5.731700 15.108002 -2.763700
					CHANNELS 3 Xrotation Yrotation Zrotation
					JOINT RightArm
					{
						OFFSET -9.825497 2.506317 -1.597400
						CHANNELS 3 Xrotation Yrotation Zrotation
						JOINT RightForeArm
						{
							OFFSET -21.966242 0.000000 0.000000
							CHANNELS 3 Xrotation Yrotation Zrotation
							JOINT RightHand
							{
								OFFSET -33.879032 0.000000 0.000000
								CHANNELS 3 Xrotation Yrotation Zrotation
								JOINT RightHandThumb1
								{
									OFFSET -6.715286 -2.359680 3.363841
									CHANNELS 3 Xrotation Yrotation Zrotation
									JOINT RightHandThumb2
									{
										OFFSET -2.507072 -1.447464 1.447461
										CHANNELS 3 Xrotation Yrotation Zrotation
										JOINT RightHandThumb3
										{
											OFFSET -2.898338 -1.673355 1.673357
											CHANNELS 3 Xrotation Yrotation Zrotation
											End Site
											{
												OFFSET 0.295959 3.727692 -0.131651
											}
										}
									}
								}
								JOINT RightHandIndex1
								{
									OFFSET -14.190811 -0.254547 3.840278
									CHANNELS 3 Xrotation Yrotation Zrotation
									JOINT RightHandIndex2
									{
										OFFSET -3.551727 0.000000 -0.000000
										CHANNELS 3 Xrotation Yrotation Zrotation
										JOINT RightHandIndex3
										{
											OFFSET -2.894196 0.000000 0.000000
											CHANNELS 3 Xrotation Yrotation Zrotation
											End Site
											{
												OFFSET 1.000603 2.690872 0.366626
											}
										}
									}
								}
								JOINT RightHandMiddle1
								{
									OFFSET -13.776489 0.000000 0.000000
									CHANNELS 3 Xrotation Yrotation Zrotation
									JOINT RightHandMiddle2
									{
										OFFSET -3.438232 0.000000 0.000000
										CHANNELS 3 Xrotation Yrotation Zrotation
										JOINT RightHandMiddle3
										{
											OFFSET -3.691551 0.000000 0.000000
											CHANNELS 3 Xrotation Yrotation Zrotation
											End Site
											{
												OFFSET 1.082298 3.499527 0.457670
											}
										}
									}
								}
								JOINT RightHandRing1
								{
									OFFSET -13.966164 -0.268127 -3.067488
									CHANNELS 3 Xrotation Yrotation Zrotation
									JOINT RightHandRing2
									{
										OFFSET -3.162567 0.000000 0.000000
										CHANNELS 3 Xrotation Yrotation Zrotation
										JOINT RightHandRing3
										{
											OFFSET -3.324348 0.000000 0.000000
											CHANNELS 3 Xrotation Yrotation Zrotation
											End Site
											{
												OFFSET 0.861900 3.184998 0.405154
											}
										}
									}
								}
								JOINT RightHandPinky1
								{
									OFFSET -13.131393 -0.168503 -5.746925
									CHANNELS 3 Xrotation Yrotation Zrotation
									JOINT RightHandPinky2
									{
										OFFSET -2.849182 0.000000 0.000000
										CHANNELS 3 Xrotation Yrotation Zrotation
										JOINT RightHandPinky3
										{
											OFFSET -2.805038 0.000000 0.000000
											CHANNELS 3 Xrotation Yrotation Zrotation
											End Site
											{
												OFFSET 0.882500 2.642609 0.325652
											}
										}
									}
								}
							}
							JOINT Right_Sleeve
							{
								OFFSET -6.592125 -0.646545 0.805568
								CHANNELS 3 Xrotation Yrotation Zrotation
								End Site
								{
									OFFSET 0.000179 20.275787 -0.000000
								}
							}
						}
					}
				}
				JOINT Bind_Right_JacketString
				{
					OFFSET -3.534800 11.969597 7.200700
					CHANNELS 3 Xrotation Yrotation Zrotation
					JOINT Bind_Right_JacketString1
					{
						OFFSET -0.319900 -6.102600 2.794100
						CHANNELS 3 Xrotation Yrotation Zrotation
						End Site
						{
							OFFSET 0.000000 6.719452 0.000000
						}
					}
				}
				JOINT Bind_Left_JacketString
				{
					OFFSET 2.904800 11.969597 7.200700
					CHANNELS 3 Xrotation Yrotation Zrotation
					JOINT Bind_Left_JacketString1
					{
						OFFSET 0.364800 -5.904503 3.186800
						CHANNELS 3 Xrotation Yrotation Zrotation
						End Site
						{
							OFFSET 0.000000 6.719513 0.000000
						}
					}
				}
				JOINT HairE
				{
					OFFSET 5.915200 17.612701 -11.592200
					CHANNELS 3 Xrotation Yrotation Zrotation
					JOINT HairE1
					{
						OFFSET 0.289200 -7.171898 -1.284500
						CHANNELS 3 Xrotation Yrotation Zrotation
						End Site
						{
							OFFSET 0.000000 7.291756 0.000000
						}
					}
				}
				JOINT HairF
				{
					OFFSET -0.864800 17.612701 -11.592200
					CHANNELS 3 Xrotation Yrotation Zrotation
					JOINT HairF1
					{
						OFFSET 0.000000 -14.087097 -2.127501
						CHANNELS 3 Xrotation Yrotation Zrotation
						End Site
						{
							OFFSET 0.000000 14.246841 0.000000
						}
					}
				}
				JOINT HairG
				{
					OFFSET -8.087700 17.612701 -11.592200
					CHANNELS 3 Xrotation Yrotation Zrotation
					JOINT HairG1
					{
						OFFSET -0.293600 -6.081398 -0.910100
						CHANNELS 3 Xrotation Yrotation Zrotation
						End Site
						{
							OFFSET 0.000000 6.156120 0.000000
						}
					}
				}
			}
		}
	}
	JOINT Pouch
	{
		OFFSET 0.000000 4.394501 10.847300
		CHANNELS 3 Xrotation Yrotation Zrotation
		End Site
		{
			OFFSET 0.000000 21.880577 0.000000
		}
	}
	JOINT Bag
	{
		OFFSET -13.229000 4.813004 -0.593300
		CHANNELS 3 Xrotation Yrotation Zrotation
		End Site
		{
			OFFSET 0.000000 21.880577 0.000000
		}
	}
	JOINT OccupyGuyFacialAnim_Joint
	{
		OFFSET 1.000000 -70.206398 -1.655000
		CHANNELS 3 Xrotation Yrotation Zrotation
		End Site
		{
			OFFSET 0.000000 21.880577 0.000000
		}
	}
}
MOTION
Frames: 5
Frame Time: 0.016667
-1.002997 61.113220 0.954142 -5.398733 -46.240538 -0.076294 -0.000000 -0.000000 0.000000 -30.005246 8.764973 16.917245 59.651450 -6.803152 4.274558 -27.272493 -7.854000 -13.834116 0.000000 0.000000 0.000000 -0.000000 -0.000000 0.000001 -23.366624 -12.095329 -27.277853 58.857741 -8.982191 -7.733434 -28.147141 -6.820266 22.141592 -0.000000 0.000001 0.000000 0.000001 -0.000001 -0.000001 9.472853 7.172804 -1.781855 2.187716 0.989897 -0.915630 2.202828 0.982776 -0.894153 0.084652 13.220556 4.538681 8.920929 20.138143 -4.130238 0.000001 0.000000 -0.000001 0.000001 0.000000 -0.000001 0.000001 0.000000 -0.000000 0.000001 0.000000 -0.000001 0.000001 0.000000 0.000000 0.000001 0.000000 -0.000001 0.000001 0.000000 0.000000 0.000001 0.000000 -0.000001 0.000001 0.000000 -0.000001 1.117178 3.546351 -8.633309 -53.487017 4.935504 -51.503004 0.000184 -106.358094 0.000199 1.988611 -7.706146 -15.869238 -6.141202 -11.690815 -6.761705 9.914121 42.595498 3.409881 0.000002 0.000006 -0.000003 0.255313 3.378224 -45.814337 5.654071 5.847738 -88.067455 0.000003 -0.000001 -0.000000 -0.461471 3.841592 -39.722679 6.450743 5.820343 -95.892844 0.000003 0.000001 0.000001 0.469718 4.966805 -39.799430 8.181052 5.368629 -113.503011 -0.000001 -0.000001 -0.000002 -3.762434 9.063707 -45.253808 5.342541 5.829006 -85.005317 -0.000001 -0.000003 0.000001 0.000001 0.000001 -0.000002 3.036131 13.027199 -5.371408 -48.713715 27.172835 83.457064 0.000150 105.988307 -0.000142 -8.345370 17.548095 8.775668 -7.341078 13.749666 7.412319 9.855789 -44.489089 -3.903251 0.000001 -0.000005 0.000000 -0.124369 -2.384799 45.108851 4.500573 -4.654515 88.071150 0.000001 -0.000000 0.000000 -0.761627 -2.932917 39.031048 5.133887 -4.632751 95.881649 -0.000001 -0.000001 -0.000003 0.154757 -4.068801 39.122664 6.509735 -4.273604 113.462870 0.000000 0.000002 -0.000003 -4.198879 -8.025530 44.637762 4.252927 -4.639631 85.014832 -0.000003 -0.000001 -0.000003 -0.000000 0.000003 -0.000000 -0.000000 -0.000000 -0.000001 -0.000000 -0.000002 -0.000000 -0.000000 -0.000000 -0.000000 -0.000000 -0.000000 -0.000000 -0.000000 -0.000000 -0.000001 -0.000000 -0.000002 0.000000 -0.000000 -0.000000 -0.000000 -0.000000 -0.000000 -0.000000 -0.000000 -0.000000 -0.000001 -0.000000 -0.000002 0.000000 -0.000000 -0.000000 0.000000 -0.000000 -0.000000 0.000000 -0.000000 -0.000000 0.000000 
-0.902652 61.205124 0.869739 -5.728005 -46.420196 -0.073903 0.000000 -0.000002 0.000000 -29.579094 8.912405 16.552501 59.212515 -6.523354 4.307722 -26.990319 -7.828920 -13.944013 -0.000000 0.000002 -0.000000 0.000003 0.000000 -0.000000 -23.324000 -11.905352 -27.485378 58.729955 -8.891376 -7.719483 -27.953236 -6.728254 22.021291 -0.000000 -0.000001 0.000000 0.000001 0.000001 0.000001 9.287389 7.275004 -1.786538 2.640258 1.191288 -1.060361 2.654105 1.184981 -1.039337 0.357707 12.542802 4.092550 8.127882 19.984276 -4.225180 0.000000 0.000000 0.000001 0.000000 0.000000 0.000001 0.000000 0.000000 0.000001 0.000000 0.000000 0.000001 0.000001 0.000000 0.000001 0.000000 0.000000 0.000001 0.000001 0.000000 0.000001 0.000000 0.000000 0.000001 0.000000 0.000000 0.000001 0.981718 3.207199 -8.086433 -52.083505 4.488236 -52.459674 0.000110 -105.430752 0.000105 1.015796 -5.582486 -15.643292 -6.141207 -11.690816 -6.761705 9.914129 42.595501 3.409879 0.000002 0.000003 -0.000001 0.255316 3.378221 -45.814341 5.654070 5.847736 -88.067462 -0.000000 0.000002 0.000002 -0.461474 3.841590 -39.722679 6.450743 5.820344 -95.892844 0.000001 0.000003 -0.000002 0.469717 4.966799 -39.799430 8.181056 5.368625 -113.503018 -0.000001 0.000001 0.000001 -3.762435 9.063709 -45.253818 5.342542 5.829003 -85.005324 0.000001 -0.000003 0.000002 -0.000000 -0.000001 -0.000001 3.469381 13.680574 -5.027487 -48.559237 27.223990 81.465715 0.000188 106.431027 -0.000186 -8.957040 17.278915 9.150951 -7.341075 13.749665 7.412317 9.855788 -44.489083 -3.903246 0.000000 -0.000002 -0.000002 -0.124369 -2.384796 45.108851 4.500571 -4.654514 88.071157 0.000003 0.000001 0.000004 -0.761628 -2.932917 39.031051 5.133884 -4.632755 95.881656 0.000001 -0.000003 0.000001 0.154758 -4.068800 39.122664 6.509737 -4.273602 113.462863 -0.000001 -0.000000 -0.000001 -4.198880 -8.025531 44.637759 4.252924 -4.639629 85.014832 -0.000003 0.000000 0.000002 0.000003 -0.000000 0.000000 -0.000000 0.000003 0.000000 -0.000000 0.000002 -0.000000 -0.000000 0.000003 -0.000000 -0.000000 0.000003 -0.000000 -0.000000 0.000003 0.000000 -0.000000 0.000002 -0.000000 -0.000000 0.000003 -0.000000 -0.000000 0.000003 -0.000000 -0.000000 0.000003 0.000000 -0.000000 0.000002 -0.000000 0.000000 -0.000002 0.000000 0.000000 -0.000002 0.000000 0.000000 -0.000002 0.000000 
-0.787452 61.297699 0.795573 -5.978088 -46.637590 0.063091 -0.000000 0.000000 -0.000000 -29.138355 8.995113 16.060070 58.733507 -6.100755 4.277349 -26.703654 -7.804194 -14.081747 0.000000 -0.000002 0.000000 -0.000002 0.000001 0.000001 -23.343659 -11.598819 -27.750912 58.605578 -8.827385 -7.699818 -27.733314 -6.645629 21.933011 0.000000 0.000001 -0.000000 0.000001 -0.000000 -0.000000 9.103420 7.529593 -1.942888 3.124196 1.480123 -1.284675 3.136774 1.474864 -1.263946 0.728170 11.771769 3.506735 6.906011 19.480693 -3.816388 -0.000000 -0.000000 0.000000 -0.000000 -0.000000 0.000000 -0.000000 -0.000000 0.000001 -0.000000 -0.000000 0.000000 -0.000000 0.000000 0.000000 -0.000000 -0.000000 0.000000 -0.000000 0.000000 0.000000 -0.000000 -0.000000 0.000000 -0.000000 -0.000000 0.000000 0.863354 2.875890 -7.567501 -50.820405 3.482935 -53.809770 0.000066 -104.407761 0.000083 -0.646193 -3.189675 -15.370733 -6.141201 -11.690816 -6.761706 9.914125 42.595505 3.409882 0.000002 -0.000000 0.000002 0.255317 3.378223 -45.814344 5.654069 5.847736 -88.067455 0.000003 -0.000001 -0.000002 -0.461468 3.841587 -39.722686 6.450740 5.820344 -95.892837 -0.000000 0.000000 -0.000003 0.469720 4.966800 -39.799437 8.181049 5.368624 -113.503011 -0.000001 0.000003 -0.000000 -3.762433 9.063705 -45.253818 5.342537 5.829003 -85.005317 -0.000002 0.000001 0.000001 0.000000 -0.000000 -0.000001 3.937033 14.543556 -4.656809 -48.082107 26.964815 78.972491 0.000169 107.157718 -0.000166 -9.547701 17.015697 9.282250 -7.341076 13.749669 7.412322 9.855785 -44.489089 -3.903253 -0.000002 0.000001 -0.000002 -0.124368 -2.384799 45.108857 4.500572 -4.654515 88.071157 -0.000002 -0.000001 0.000004 -0.761625 -2.932915 39.031055 5.133885 -4.632755 95.881656 0.000001 0.000000 -0.000001 0.154759 -4.068800 39.122671 6.509733 -4.273605 113.462870 0.000002 0.000000 -0.000000 -4.198878 -8.025529 44.637766 4.252923 -4.639634 85.014832 0.000001 0.000002 -0.000001 0.000002 -0.000000 0.000001 -0.000000 0.000001 -0.000001 -0.000000 -0.000000 -0.000000 -0.000000 0.000001 -0.000001 -0.000000 0.000001 -0.000001 -0.000000 0.000001 -0.000001 -0.000000 -0.000000 -0.000000 -0.000000 0.000001 -0.000001 -0.000000 0.000001 -0.000001 -0.000000 0.000001 -0.000001 -0.000000 -0.000000 -0.000000 -0.000000 0.000000 -0.000000 -0.000000 0.000000 -0.000000 -0.000000 0.000000 -0.000000 
-0.656856 61.400665 0.750085 -6.277669 -46.713265 0.481158 0.000000 -0.000001 -0.000000 -28.526664 9.081106 15.168151 58.105649 -5.614465 4.169804 -26.338678 -7.822060 -14.176495 -0.000000 -0.000000 -0.000000 -0.000001 -0.000000 -0.000000 -23.245565 -11.062360 -28.280444 58.507967 -8.756967 -7.649049 -27.494798 -6.825937 21.909824 -0.000000 0.000000 0.000000 0.000000 0.000000 -0.000001 8.818290 8.222867 -2.294803 3.590462 1.988617 -1.614735 3.602246 1.984436 -1.593469 1.274046 10.754605 2.693522 6.275627 17.988037 -3.563891 0.000000 0.000000 -0.000000 0.000000 0.000000 -0.000000 0.000000 0.000000 0.000000 0.000000 0.000000 -0.000000 0.000000 0.000000 0.000001 0.000000 0.000000 -0.000000 0.000000 0.000000 0.000001 0.000000 0.000000 -0.000000 0.000000 0.000000 -0.000000 0.788832 2.666432 -7.211887 -49.654618 0.704922 -56.253315 0.000345 -102.244688 0.000336 -2.418250 -0.428777 -15.025528 -6.141199 -11.690809 -6.761708 9.914120 42.595495 3.409879 0.000000 0.000003 0.000001 0.255314 3.378224 -45.814341 5.654069 5.847737 -88.067455 0.000000 -0.000001 -0.000004 -0.461471 3.841593 -39.722686 6.450744 5.820346 -95.892844 -0.000001 -0.000000 -0.000001 0.469719 4.966806 -39.799434 8.181050 5.368626 -113.503011 -0.000001 0.000000 -0.000002 -3.762437 9.063713 -45.253814 5.342542 5.829004 -85.005324 0.000001 0.000001 0.000001 0.000000 0.000003 -0.000001 4.427752 15.576523 -4.226200 -46.369348 25.864354 75.178308 0.000182 108.408387 -0.000184 -10.196589 16.852069 9.256448 -7.341076 13.749667 7.412325 9.855779 -44.489089 -3.903252 0.000000 0.000002 0.000001 -0.124370 -2.384800 45.108857 4.500571 -4.654514 88.071150 -0.000003 -0.000004 0.000005 -0.761627 -2.932917 39.031055 5.133887 -4.632752 95.881649 0.000002 -0.000002 0.000001 0.154760 -4.068802 39.122671 6.509733 -4.273604 113.462870 -0.000001 -0.000001 -0.000001 -4.198879 -8.025531 44.637769 4.252925 -4.639628 85.014832 -0.000003 0.000001 0.000002 -0.000001 0.000000 0.000001 0.000000 0.000001 0.000000 0.000000 0.000001 -0.000000 0.000000 0.000001 -0.000000 0.000000 0.000001 -0.000000 0.000000 0.000001 0.000000 0.000000 0.000001 0.000000 0.000000 0.000001 -0.000000 0.000000 0.000001 -0.000000 0.000000 0.000001 0.000000 0.000000 0.000001 0.000000 0.000000 -0.000001 -0.000000 0.000000 -0.000001 -0.000000 0.000000 -0.000001 -0.000000 
-0.512401 61.527748 0.751135 -6.830495 -46.437005 1.371817 0.000000 -0.000000 0.000000 -27.501099 9.285426 13.519993 57.159165 -5.201420 3.963224 -25.784183 -7.926376 -14.125998 0.000000 -0.000002 0.000000 -0.000002 -0.000002 -0.000002 -22.743468 -10.101729 -29.336120 58.505092 -8.414902 -7.530918 -27.259101 -7.838991 21.893015 -0.000000 -0.000000 -0.000000 0.000000 0.000000 -0.000000 8.227910 9.612686 -2.687990 3.949819 2.831914 -1.994071 3.961719 2.828646 -1.970930 2.071401 9.285614 1.530602 7.438201 14.664104 -4.681024 0.000002 -0.000000 -0.000000 0.000002 -0.000000 -0.000000 0.000002 -0.000000 -0.000000 0.000002 -0.000000 -0.000000 0.000000 -0.000000 -0.000000 0.000002 -0.000000 -0.000000 0.000000 -0.000000 -0.000000 0.000002 -0.000000 -0.000000 0.000002 -0.000000 -0.000000 0.791108 2.710382 -7.177289 -48.569888 -4.910030 -60.701421 0.000962 -97.495814 0.000958 -3.290966 2.878783 -14.638866 -6.141205 -11.690813 -6.761702 9.914127 42.595498 3.409881 -0.000001 0.000002 0.000001 0.255315 3.378225 -45.814337 5.654073 5.847739 -88.067462 0.000003 0.000005 -0.000001 -0.461468 3.841586 -39.722686 6.450744 5.820344 -95.892837 0.000001 0.000002 -0.000003 0.469718 4.966803 -39.799430 8.181057 5.368625 -113.503011 -0.000001 0.000001 -0.000001 -3.762434 9.063708 -45.253814 5.342545 5.829005 -85.005317 0.000001 -0.000003 0.000002 0.000000 0.000000 -0.000001 4.917513 16.582045 -3.718185 -42.928391 23.446346 69.552185 0.000016 110.157639 -0.000029 -11.049477 16.602255 9.503738 -7.341073 13.749663 7.412323 9.855785 -44.489089 -3.903246 0.000000 0.000003 0.000001 -0.124369 -2.384800 45.108854 4.500571 -4.654515 88.071150 -0.000000 0.000000 0.000004 -0.761627 -2.932918 39.031048 5.133882 -4.632754 95.881656 0.000000 -0.000000 0.000003 0.154758 -4.068805 39.122668 6.509734 -4.273605 113.462870 0.000002 0.000000 -0.000003 -4.198880 -8.025533 44.637762 4.252927 -4.639629 85.014832 0.000002 0.000000 0.000002 0.000002 0.000002 -0.000001 -0.000001 0.000001 -0.000000 0.000000 0.000003 -0.000000 -0.000001 0.000001 -0.000000 -0.000001 0.000001 -0.000000 -0.000001 0.000001 -0.000000 0.000000 0.000003 -0.000001 -0.000001 0.000001 -0.000000 -0.000001 0.000001 -0.000000 -0.000001 0.000001 -0.000000 0.000000 0.000003 -0.000001 0.000000 -0.000000 0.000000 0.000000 -0.000000 0.000000 0.000000 -0.000000 0.000000 
